<?xml version="1.0" encoding="UTF-8" standalone="yes"?>
<svg version="1.2" width="3840.000000pt" height="3840.000000pt" viewBox="0 0 3840.000000 3840.000000" preserveAspectRatio="xMidYMid meet" baseProfile="tiny-ps" xmlns="http://www.w3.org/2000/svg">
  <title>bimi-svg-tiny-12-ps</title>
  <g transform="translate(0.000000,3840.000000) scale(0.100000,-0.100000)" fill="#000000" stroke="none">
    <path d="M0 19200 l0 -19200 19200 0 19200 0 0 19200 0 19200 -19200 0 -19200&#xA;0 0 -19200z m19370 5755 c52 -42 120 -96 150 -120 30 -25 109 -89 175 -142 66&#xA;-53 152 -127 190 -163 39 -36 93 -84 120 -105 28 -22 95 -83 151 -135 56 -52&#xA;150 -140 210 -196 144 -133 526 -532 639 -667 203 -242 371 -482 460 -655 87&#xA;-172 155 -406 155 -537 0 -171 -125 -535 -257 -747 -134 -215 -203 -332 -199&#xA;-336 3 -2 58 29 123 69 65 41 127 79 138 85 11 6 45 27 75 46 174 111 458 222&#xA;651 253 87 14 118 14 194 4 179 -23 383 -103 614 -240 19 -11 66 -44 105 -73&#xA;39 -29 105 -76 148 -104 42 -28 102 -75 135 -105 32 -29 101 -87 153 -129 159&#xA;-126 789 -761 935 -943 27 -33 80 -94 119 -135 39 -41 94 -105 122 -142 28&#xA;-37 79 -100 115 -140 35 -39 88 -103 118 -142 29 -39 75 -99 102 -132 48 -61&#xA;49 -63 49 -134 l0 -72 -58 -71 c-32 -40 -76 -97 -97 -127 -22 -30 -69 -86&#xA;-104 -125 -35 -38 -83 -97 -108 -130 -24 -33 -88 -109 -143 -170 -54 -60 -127&#xA;-142 -162 -182 -255 -291 -691 -727 -888 -889 -52 -43 -118 -99 -147 -124 -45&#xA;-41 -179 -140 -355 -261 -29 -21 -109 -66 -178 -102 -384 -200 -616 -216 -985&#xA;-70 -125 49 -327 151 -405 204 -36 24 -81 53 -100 63 -19 11 -71 43 -114 72&#xA;-44 30 -82 51 -84 49 -3 -2 23 -47 57 -99 33 -52 61 -97 61 -101 0 -3 32 -56&#xA;71 -117 114 -178 224 -425 269 -607 27 -106 34 -222 21 -315 -25 -180 -147&#xA;-462 -278 -647 -36 -52 -92 -132 -123 -179 -32 -47 -82 -113 -112 -146 -31&#xA;-34 -89 -104 -130 -155 -79 -99 -582 -611 -756 -770 -163 -149 -339 -302 -442&#xA;-386 -52 -42 -120 -100 -150 -128 -30 -28 -91 -78 -135 -110 -44 -33 -115 -88&#xA;-158 -122 -74 -60 -80 -63 -132 -63 -49 0 -59 4 -107 43 -29 24 -89 70 -133&#xA;102 -44 32 -108 83 -143 114 -35 31 -113 97 -173 146 -413 342 -953 864 -1243&#xA;1203 -215 252 -383 495 -479 692 -136 281 -171 458 -132 665 35 183 165 486&#xA;291 680 102 158 174 278 170 283 -3 2 -41 -19 -85 -47 -44 -28 -82 -51 -85&#xA;-51 -3 0 -52 -30 -108 -67 -195 -127 -529 -268 -698 -294 -90 -14 -274 -6&#xA;-345 15 -167 48 -423 171 -555 266 -47 33 -114 80 -150 104 -68 46 -133 97&#xA;-326 261 -204 173 -777 753 -949 960 -32 39 -84 97 -115 130 -31 33 -83 94&#xA;-115 135 -32 41 -79 98 -105 125 -25 28 -74 88 -110 135 -35 47 -87 115 -117&#xA;151 -52 64 -53 68 -53 129 0 59 3 67 38 109 21 25 70 89 109 141 39 52 99 127&#xA;133 165 34 39 83 97 108 130 25 33 87 105 137 160 50 55 101 114 114 130 42&#xA;57 394 429 556 590 99 98 326 307 383 353 31 25 91 76 133 113 42 37 110 89&#xA;150 117 41 27 117 80 169 116 99 71 257 159 350 196 30 12 64 26 75 31 75 32&#xA;201 62 306 74 188 21 573 -113 872 -303 156 -99 249 -153 257 -150 5 2 -15 39&#xA;-44 83 -264 405 -406 753 -406 1000 0 181 89 430 246 687 30 50 70 109 88 132&#xA;18 23 52 70 77 106 48 72 105 144 160 205 20 22 61 70 91 106 107 132 528 563&#xA;678 695 30 27 93 85 140 129 47 45 123 113 170 153 47 40 117 100 156 135 38&#xA;34 108 92 155 130 46 37 119 95 161 130 42 34 109 88 150 119 l73 58 80 0 80&#xA;0 95 -75z"/>
    <path d="M19169 24623 c-13 -9 -60 -49 -104 -88 -44 -39 -111 -95 -150 -124&#xA;-38 -29 -95 -76 -125 -105 -30 -28 -98 -87 -150 -131 -232 -195 -761 -716&#xA;-928 -915 -54 -63 -124 -147 -157 -186 -78 -91 -245 -335 -295 -427 -40 -76&#xA;-88 -191 -111 -267 -29 -93 -16 -264 26 -365 7 -16 18 -48 25 -70 45 -141 280&#xA;-540 432 -733 31 -39 80 -107 109 -150 28 -42 75 -104 104 -137 28 -33 77 -93&#xA;108 -133 68 -90 220 -267 432 -504 88 -99 188 -212 222 -251 35 -40 181 -190&#xA;326 -334 l263 -263 245 248 c272 273 289 291 545 578 197 220 273 309 395 459&#xA;44 55 114 141 154 190 41 50 102 131 136 180 34 50 79 110 99 135 94 114 334&#xA;507 388 635 81 193 96 251 96 370 -1 96 -5 122 -33 205 -50 149 -150 319 -325&#xA;556 -210 283 -795 885 -1131 1164 -49 41 -119 103 -155 136 -36 34 -96 86&#xA;-135 115 -38 29 -104 83 -145 119 -41 37 -89 76 -106 88 -29 20 -32 20 -55 5z"/>
    <path d="M16030 21244 c-71 -15 -195 -61 -280 -105 -93 -47 -383 -249 -501&#xA;-349 -400 -337 -901 -848 -1236 -1260 -43 -52 -107 -129 -143 -170 -90 -103&#xA;-130 -155 -130 -171 0 -8 27 -45 60 -84 33 -38 94 -113 137 -165 201 -246 693&#xA;-783 895 -975 226 -215 497 -448 598 -514 30 -20 99 -67 152 -104 104 -72 287&#xA;-165 378 -190 129 -37 168 -41 238 -28 94 18 208 55 322 105 145 64 505 286&#xA;650 400 36 29 103 78 150 111 47 32 114 84 150 115 36 31 106 87 155 125 50&#xA;38 126 101 170 140 44 39 109 94 144 123 56 47 109 94 326 292 316 290 665&#xA;628 665 645 0 6 -116 125 -257 265 -284 281 -342 336 -516 490 -218 193 -254&#xA;225 -323 282 -38 32 -96 81 -130 110 -72 62 -264 216 -340 273 -227 168 -324&#xA;237 -421 301 -61 41 -114 74 -117 74 -3 0 -47 25 -98 57 -169 103 -348 178&#xA;-490 207 -92 19 -122 19 -208 0z"/>
    <path d="M22173 21249 c-213 -36 -577 -228 -943 -500 -63 -47 -137 -100 -164&#xA;-119 -27 -18 -88 -66 -136 -106 -48 -40 -121 -99 -163 -131 -150 -114 -506&#xA;-429 -841 -745 -333 -312 -468 -451 -460 -469 20 -45 823 -791 1079 -1004 33&#xA;-27 80 -68 105 -91 25 -23 88 -75 140 -115 52 -39 118 -92 145 -117 28 -24 79&#xA;-65 115 -90 36 -25 115 -82 175 -127 109 -82 283 -196 445 -292 221 -132 455&#xA;-218 590 -217 106 0 274 56 425 140 108 60 351 232 460 324 48 41 124 106 169&#xA;144 179 153 698 683 896 916 30 36 80 92 111 125 30 33 78 89 105 125 27 35&#xA;85 105 128 155 111 126 112 129 91 161 -9 14 -47 60 -84 102 -37 42 -94 111&#xA;-126 152 -33 41 -100 120 -150 175 -49 55 -110 125 -134 155 -25 30 -79 91&#xA;-121 135 -495 517 -578 598 -890 861 -63 54 -146 118 -185 143 -38 25 -106 70&#xA;-150 102 -133 94 -293 168 -430 200 -86 20 -122 21 -202 8z"/>
    <path d="M19034 18767 c-371 -375 -850 -906 -1049 -1161 -44 -57 -100 -125&#xA;-124 -152 -24 -27 -64 -78 -89 -114 -25 -36 -83 -114 -128 -175 -78 -105 -254&#xA;-368 -254 -379 0 -3 -21 -38 -47 -78 -59 -92 -123 -231 -170 -367 -34 -98 -37&#xA;-115 -37 -221 -1 -113 0 -117 43 -225 59 -147 93 -216 156 -305 28 -41 78&#xA;-113 110 -160 56 -81 89 -121 305 -374 167 -195 685 -702 906 -885 16 -14 65&#xA;-57 109 -96 44 -39 125 -107 180 -153 55 -45 127 -105 160 -133 90 -76 86 -75&#xA;147 -28 29 23 76 63 103 89 28 26 84 73 125 105 129 98 448 385 680 609 386&#xA;373 640 659 833 940 121 175 186 295 230 426 23 68 43 170 39 195 -1 6 -6 37&#xA;-11 70 -38 253 -187 527 -582 1074 -49 68 -113 151 -142 185 -30 34 -79 95&#xA;-109 137 -31 41 -85 107 -120 145 -35 38 -100 114 -144 169 -45 55 -92 109&#xA;-104 120 -13 11 -61 65 -109 120 -93 107 -552 594 -673 712 l-73 73 -161 -163z"/>
  </g>
</svg>